<?xml version="1.0" encoding="utf-8"?>
<!-- Generator: Adobe Illustrator 19.2.1, SVG Export Plug-In . SVG Version: 6.00 Build 0)  -->
<svg version="1.1" id="圖層_1" xmlns="http://www.w3.org/2000/svg" xmlns:xlink="http://www.w3.org/1999/xlink" x="0px" y="0px"
	 viewBox="0 0 139.3 139.3" style="enable-background:new 0 0 139.3 139.3;" xml:space="preserve">
<style type="text/css">
	.st0{fill:none;stroke:#FFFFFF;stroke-miterlimit:10;}
	.st1{fill:#FFFFFF;}
</style>
<g>
	<path class="st0" d="M69.6,5.5C34.2,5.5,5.5,34.2,5.5,69.6c0,35.4,28.7,64.1,64.1,64.1c35.4,0,64.1-28.7,64.1-64.1
		C133.8,34.2,105.1,5.5,69.6,5.5z M119.4,69.6c0,27.5-22.3,49.8-49.8,49.8c-27.5,0-49.8-22.3-49.8-49.8c0-27.5,22.3-49.8,49.8-49.8
		C97.1,19.9,119.4,42.1,119.4,69.6z"/>
	<polygon class="st1" points="12.3,77.9 8.5,78 11.6,80.1 10.5,83.8 13.6,81.5 16.7,83.7 15.4,80.1 18.5,77.8 14.7,77.9 13.4,74.3 	
		"/>
	<polygon class="st1" points="124.3,77.9 120.5,78 123.7,80.2 122.5,83.8 125.6,81.5 128.7,83.7 127.5,80.1 130.5,77.8 126.7,77.9 
		125.4,74.3 	"/>
	<polygon class="st1" points="16.6,60 11.7,59 11.3,61 10.3,60.8 11.4,55.6 12.4,55.8 12,57.7 16.9,58.7 	"/>
	<path class="st1" d="M19.4,49.8L19,51.2l-1.5,0.1l-0.8,2.5l1.1,0.9l-0.4,1.4l-4.9-4.3l0.4-1.4L19.4,49.8z M16.4,51.4L14,51.6
		l1.8,1.6L16.4,51.4z"/>
	<rect x="17" y="43.4" transform="matrix(0.4083 -0.9129 0.9129 0.4083 -31.8949 43.622)" class="st1" width="1.4" height="6"/>
	<polygon class="st1" points="22.1,44.1 16.1,42.3 16.9,41.1 20.9,42.4 18,39.2 18.9,37.9 23.1,39 20,36 20.7,34.8 25,39.3 
		24.3,40.6 19.7,39.4 22.9,42.8 	"/>
	<path class="st1" d="M30.5,32.5l-0.9,1.1l-1.4-0.4l-1.7,2.1l0.7,1.3l-0.9,1.1l-2.9-5.9l0.9-1.1L30.5,32.5z M27.1,32.8l-2.3-0.7
		l1.1,2.1L27.1,32.8z"/>
	<polygon class="st1" points="31.8,31.3 27.7,26.8 28.7,25.9 33.4,27.1 30.8,24.1 31.7,23.2 35.7,27.7 34.7,28.6 30.1,27.5 
		32.7,30.4 	"/>
	<path class="st1" d="M43.2,20.1l1.3-0.3c0.2,0.7,0.1,1.3-0.1,1.8c-0.2,0.5-0.7,0.9-1.3,1.3c-0.8,0.4-1.5,0.6-2.3,0.4
		C40,23,39.4,22.5,39,21.7c-0.5-0.9-0.6-1.7-0.4-2.5c0.2-0.8,0.7-1.4,1.6-1.8c0.7-0.4,1.4-0.5,2.1-0.4c0.4,0.1,0.8,0.3,1.1,0.6
		l-1,0.9c-0.2-0.2-0.5-0.4-0.8-0.4c-0.3,0-0.6,0-0.9,0.2c-0.4,0.2-0.7,0.6-0.8,1c-0.1,0.4,0,1,0.4,1.6c0.4,0.7,0.8,1.1,1.2,1.2
		c0.4,0.1,0.8,0.1,1.3-0.2c0.3-0.2,0.5-0.4,0.7-0.7C43.4,20.9,43.4,20.6,43.2,20.1"/>
	<rect x="46.2" y="14.5" transform="matrix(0.9161 -0.4009 0.4009 0.9161 -3.083 20.2603)" class="st1" width="1.4" height="6"/>
	<polygon class="st1" points="52.5,18.6 48.4,13.5 49.8,13.1 52.7,16.8 52.9,12.1 54.3,11.6 53.9,18.1 	"/>
	<rect x="57.2" y="11" transform="matrix(0.9784 -0.207 0.207 0.9784 -1.6418 12.2746)" class="st1" width="1.4" height="6"/>
	<polygon class="st1" points="61.5,16.3 60.8,10.4 62.1,10.3 62.7,15.2 66,14.8 66.1,15.8 	"/>
	<path class="st1" d="M74.9,13.8l0.1-1l2.9,0.3l-0.2,2.4c-0.3,0.2-0.7,0.4-1.3,0.5c-0.6,0.1-1.1,0.2-1.6,0.1
		c-0.7-0.1-1.3-0.3-1.8-0.6c-0.5-0.3-0.8-0.7-1.1-1.2c-0.2-0.5-0.3-1.1-0.2-1.6c0.1-0.6,0.3-1.2,0.6-1.6c0.3-0.5,0.8-0.8,1.4-1
		c0.4-0.2,1-0.2,1.6-0.2c0.8,0.1,1.5,0.3,1.9,0.6c0.4,0.4,0.7,0.8,0.8,1.4L76.6,12c-0.1-0.3-0.2-0.6-0.5-0.7
		c-0.2-0.2-0.6-0.3-0.9-0.3c-0.6-0.1-1.1,0.1-1.4,0.4c-0.4,0.3-0.6,0.8-0.7,1.4c-0.1,0.7,0.1,1.3,0.4,1.6c0.3,0.4,0.8,0.6,1.3,0.7
		c0.3,0,0.6,0,0.9-0.1c0.3-0.1,0.6-0.2,0.8-0.3l0.1-0.8L74.9,13.8z"/>
	<path class="st1" d="M80.2,13.7c0.1-0.6,0.4-1.1,0.7-1.4c0.2-0.3,0.5-0.5,0.8-0.6c0.3-0.2,0.6-0.3,1-0.3c0.4-0.1,0.9,0,1.5,0.1
		c1,0.2,1.7,0.7,2.1,1.4c0.4,0.7,0.5,1.5,0.3,2.4c-0.2,0.9-0.7,1.6-1.4,2c-0.7,0.4-1.5,0.5-2.5,0.2c-1-0.2-1.7-0.7-2.1-1.4
		C80.1,15.4,80,14.6,80.2,13.7 M81.6,14c-0.2,0.7-0.1,1.2,0.1,1.6c0.3,0.4,0.6,0.7,1.2,0.8c0.5,0.1,1,0.1,1.4-0.2
		c0.4-0.3,0.7-0.7,0.9-1.4c0.2-0.7,0.1-1.2-0.1-1.6c-0.2-0.4-0.6-0.7-1.2-0.8c-0.5-0.1-1-0.1-1.4,0.2C82.1,12.9,81.8,13.3,81.6,14"
		/>
	<polygon class="st1" points="89.3,19.5 89.4,13 90.8,13.6 90.6,18.3 93.8,14.8 95.2,15.4 90.7,20 	"/>
	<polygon class="st1" points="94.4,21.7 97.4,16.5 101.7,19 101.2,19.9 98,18 97.4,19.2 100.3,20.9 99.8,21.8 96.9,20.1 96.1,21.5 
		99.3,23.4 98.8,24.3 	"/>
	<path class="st1" d="M100.6,25.5l3.7-4.8l2.2,1.7c0.6,0.4,0.9,0.8,1.1,1.1c0.2,0.3,0.3,0.6,0.3,0.9c0,0.3-0.1,0.6-0.4,0.9
		c-0.3,0.4-0.6,0.6-1,0.6c-0.4,0.1-0.9-0.1-1.4-0.4c0.1,0.3,0.2,0.6,0.3,0.8c0,0.3,0,0.7,0,1.2l-0.1,1.4l-1.3-1l0-1.6
		c0-0.6,0-1,0-1.1c0-0.2-0.1-0.3-0.2-0.4c-0.1-0.1-0.2-0.3-0.5-0.5l-0.2-0.2l-1.5,2L100.6,25.5z M103.8,23.5l0.8,0.6
		c0.5,0.4,0.8,0.6,1,0.7c0.2,0.1,0.3,0.1,0.5,0c0.1,0,0.3-0.1,0.4-0.3c0.1-0.2,0.2-0.3,0.2-0.5c0-0.2-0.1-0.3-0.3-0.5
		c-0.1-0.1-0.3-0.3-0.8-0.6l-0.8-0.6L103.8,23.5z"/>
	<polygon class="st1" points="106.6,30.3 110.9,26.2 111.8,27.1 110.8,31.9 113.7,29.1 114.6,30 110.3,34.2 109.3,33.2 110.3,28.5 
		107.5,31.2 	"/>
	<polygon class="st1" points="111.8,36 116.8,32.5 117.9,34.2 115.3,37.5 119.3,36.1 120.5,37.8 115.6,41.3 114.8,40.2 118.7,37.5 
		114.1,39.2 113.3,38.1 116.4,34.3 112.6,37 	"/>
	<polygon class="st1" points="116.7,43.3 122.1,40.6 124.3,45 123.4,45.5 121.8,42.3 120.6,42.9 122.1,45.9 121.2,46.3 119.7,43.3 
		118.2,44.1 119.9,47.4 119,47.9 	"/>
	<polygon class="st1" points="119.8,49.8 125.5,47.9 126,49.1 123,53 126.8,51.7 127.2,52.9 121.5,54.9 121.1,53.6 124,49.8 
		120.2,51 	"/>
	<polygon class="st1" points="122.4,58.7 127.3,57.8 126.9,55.8 127.9,55.6 129,60.8 128,61 127.6,59.1 122.7,60 	"/>
	<path class="st1" d="M30.4,107.3l1,0.9l-2.2,2.4c-0.4,0.4-0.6,0.6-0.7,0.8c-0.1,0.2-0.2,0.5-0.1,0.7c0.1,0.3,0.2,0.5,0.5,0.8
		c0.3,0.3,0.5,0.4,0.8,0.4c0.2,0,0.4,0,0.6-0.1c0.2-0.1,0.4-0.4,0.7-0.7l2.3-2.4l1,0.9l-2.2,2.3c-0.5,0.5-0.9,0.9-1.1,1
		s-0.5,0.3-0.8,0.3c-0.3,0-0.6,0-0.9-0.2c-0.3-0.1-0.7-0.4-1.1-0.7c-0.5-0.4-0.8-0.8-0.9-1.1c-0.1-0.3-0.2-0.6-0.2-0.9
		c0-0.3,0.1-0.5,0.2-0.7c0.2-0.3,0.5-0.7,1-1.2L30.4,107.3z"/>
	<path class="st1" d="M33.3,115.5l1.1,0.7c-0.2,0.4-0.2,0.7-0.1,1c0.1,0.3,0.3,0.6,0.6,0.8c0.4,0.3,0.7,0.4,0.9,0.4
		c0.3,0,0.5-0.1,0.6-0.3c0.1-0.1,0.1-0.2,0.1-0.4c0-0.1-0.1-0.3-0.2-0.5c-0.1-0.1-0.3-0.4-0.7-0.8c-0.5-0.6-0.8-1-0.9-1.4
		c-0.1-0.5-0.1-1,0.2-1.3c0.2-0.2,0.4-0.4,0.7-0.5c0.3-0.1,0.7-0.1,1,0c0.4,0.1,0.8,0.3,1.2,0.6c0.7,0.5,1.1,1,1.3,1.5
		c0.1,0.5,0.1,1-0.2,1.5l-1.1-0.7c0.1-0.3,0.2-0.5,0.1-0.8c-0.1-0.2-0.3-0.4-0.6-0.7c-0.3-0.2-0.6-0.3-0.9-0.4
		c-0.2,0-0.3,0.1-0.4,0.2c-0.1,0.1-0.1,0.3,0,0.4c0.1,0.2,0.3,0.6,0.8,1.1c0.5,0.5,0.8,0.9,0.9,1.2c0.2,0.3,0.3,0.6,0.2,0.9
		c0,0.3-0.1,0.6-0.3,0.9c-0.2,0.3-0.5,0.5-0.8,0.6c-0.3,0.1-0.7,0.1-1.1,0c-0.4-0.1-0.8-0.3-1.3-0.7c-0.7-0.5-1.1-1-1.3-1.6
		C32.9,116.6,33,116.1,33.3,115.5"/>
	<polygon class="st1" points="39,121.7 41.8,116.4 43.5,117.3 42.7,121.5 45.7,118.4 47.5,119.4 44.7,124.7 43.6,124.1 45.8,119.9 
		42.4,123.5 41.3,122.9 42.3,118.1 40.1,122.3 	"/>
	<path class="st1" d="M51.1,124.8l0.3-1l2.8,0.9l-0.8,2.3c-0.3,0.1-0.8,0.2-1.4,0.2c-0.6,0-1.1-0.1-1.6-0.3c-0.7-0.2-1.2-0.5-1.6-1
		c-0.4-0.4-0.7-0.9-0.7-1.5c-0.1-0.5,0-1.1,0.1-1.6c0.2-0.6,0.5-1.1,1-1.4c0.4-0.4,1-0.6,1.6-0.7c0.5-0.1,1,0,1.6,0.2
		c0.8,0.3,1.3,0.6,1.7,1.1c0.3,0.4,0.5,1,0.4,1.5l-1.3-0.2c0-0.3-0.1-0.6-0.3-0.8c-0.2-0.2-0.5-0.4-0.8-0.6c-0.6-0.2-1.1-0.2-1.5,0
		c-0.4,0.2-0.8,0.6-1,1.3c-0.2,0.7-0.2,1.2,0,1.7c0.2,0.4,0.6,0.8,1.1,1c0.3,0.1,0.6,0.1,0.9,0.1c0.3,0,0.6,0,0.8-0.1l0.2-0.7
		L51.1,124.8z"/>
	<rect x="57.9" y="125.6" transform="matrix(0.1508 -0.9886 0.9886 0.1508 -73.134 167.4906)" class="st1" width="6" height="1.4"/>
	<polygon class="st1" points="63.9,129.8 64.2,123.8 65.5,123.8 68.1,128 68.3,124 69.5,124 69.2,130 67.9,130 65.4,125.9 
		65.2,129.8 	"/>
	<polygon class="st1" points="77.7,129.4 77,124.5 75.1,124.8 74.9,123.8 80.2,123 80.3,124 78.4,124.3 79.1,129.3 	"/>
	<path class="st1" d="M88.6,127.1l-1.4,0.4l-0.9-1.2l-2.6,0.7l-0.2,1.5l-1.4,0.4l1-6.5l1.4-0.4L88.6,127.1z M85.6,125.4l-1.5-1.9
		l-0.3,2.4L85.6,125.4z"/>
	<polygon class="st1" points="90.6,126.2 88.5,120.6 89.7,120.1 91.9,125.8 	"/>
	<polygon class="st1" points="95.4,124.3 91.2,119.7 92.4,119.1 95.2,122.2 94.4,118 95.8,117.3 98.8,120.4 97.8,116.2 99,115.6 
		100.3,121.7 99.1,122.4 95.8,119 96.7,123.6 	"/>
	<path class="st1" d="M108.1,116.3l-1.2,0.9l-1.3-0.8l-2.2,1.6l0.4,1.4l-1.2,0.8l-1.5-6.4l1.2-0.8L108.1,116.3z M104.7,115.8
		l-2.1-1.3l0.6,2.3L104.7,115.8z"/>
	<polygon class="st1" points="109.9,114.7 105.7,110.4 106.6,109.4 111.4,110.4 108.6,107.5 109.5,106.6 113.7,111 112.7,111.9 
		108.1,111 110.8,113.8 	"/>
	<path class="st1" d="M139.3,69.6c0,0.6-0.5,1.1-1.1,1.1c-0.6,0-1.1-0.5-1.1-1.1c0-0.6,0.5-1.1,1.1-1.1
		C138.8,68.6,139.3,69,139.3,69.6"/>
	<path class="st1" d="M2.2,69.6c0,0.6-0.5,1.1-1.1,1.1S0,70.2,0,69.6c0-0.6,0.5-1.1,1.1-1.1S2.2,69,2.2,69.6"/>
	<path class="st1" d="M137.9,56.1c0.1,0.6-0.3,1.2-0.8,1.3c-0.6,0.1-1.2-0.3-1.3-0.9c-0.1-0.6,0.3-1.2,0.9-1.3
		C137.3,55.1,137.8,55.5,137.9,56.1"/>
	<path class="st1" d="M3.5,82.8c0.1,0.6-0.3,1.2-0.9,1.3c-0.6,0.1-1.2-0.3-1.3-0.9c-0.1-0.6,0.3-1.2,0.9-1.3
		C2.8,81.8,3.3,82.2,3.5,82.8"/>
	<path class="st1" d="M134,43c0.2,0.6,0,1.2-0.6,1.4c-0.6,0.2-1.2,0-1.4-0.6c-0.2-0.6,0-1.2,0.6-1.4C133.1,42.2,133.7,42.4,134,43"
		/>
	<path class="st1" d="M7.3,95.5c0.2,0.6,0,1.2-0.6,1.4c-0.6,0.2-1.2,0-1.4-0.6c-0.2-0.6,0-1.2,0.6-1.4C6.4,94.6,7.1,94.9,7.3,95.5"
		/>
	<path class="st1" d="M127.5,31c0.3,0.5,0.2,1.2-0.3,1.5c-0.5,0.3-1.2,0.2-1.5-0.3c-0.3-0.5-0.2-1.2,0.3-1.5
		C126.5,30.3,127.2,30.5,127.5,31"/>
	<path class="st1" d="M13.5,107.1c0.3,0.5,0.2,1.2-0.3,1.5c-0.5,0.3-1.2,0.2-1.5-0.3c-0.3-0.5-0.2-1.2,0.3-1.5
		C12.5,106.5,13.2,106.6,13.5,107.1"/>
	<path class="st1" d="M118.9,20.4c0.4,0.4,0.4,1.1,0,1.5c-0.4,0.4-1.1,0.4-1.5,0c-0.4-0.4-0.4-1.1,0-1.5
		C117.8,20,118.5,20,118.9,20.4"/>
	<path class="st1" d="M21.9,117.3c0.4,0.4,0.4,1.1,0,1.5c-0.4,0.4-1.1,0.4-1.5,0c-0.4-0.4-0.4-1.1,0-1.5
		C20.8,116.9,21.5,116.9,21.9,117.3"/>
	<path class="st1" d="M108.3,11.7c0.5,0.3,0.6,1,0.3,1.5c-0.3,0.5-1,0.6-1.5,0.3c-0.5-0.3-0.6-1-0.3-1.5
		C107.2,11.5,107.8,11.4,108.3,11.7"/>
	<path class="st1" d="M32.2,125.7c0.5,0.3,0.6,1,0.3,1.5c-0.3,0.5-1,0.6-1.5,0.3c-0.5-0.3-0.6-1-0.3-1.5
		C31,125.5,31.7,125.4,32.2,125.7"/>
	<path class="st1" d="M96.3,5.3c0.6,0.2,0.8,0.9,0.6,1.4c-0.2,0.6-0.9,0.8-1.4,0.6s-0.8-0.9-0.6-1.4C95.1,5.3,95.7,5.1,96.3,5.3"/>
	<path class="st1" d="M43.8,132c0.6,0.2,0.8,0.9,0.6,1.4c-0.2,0.6-0.9,0.8-1.4,0.6c-0.6-0.2-0.8-0.9-0.6-1.4
		C42.6,132,43.3,131.7,43.8,132"/>
	<path class="st1" d="M83.2,1.3c0.6,0.1,1,0.7,0.9,1.3c-0.1,0.6-0.7,1-1.3,0.9c-0.6-0.1-1-0.7-0.8-1.3C82.1,1.6,82.6,1.2,83.2,1.3"
		/>
	<path class="st1" d="M56.5,135.8c0.6,0.1,1,0.7,0.9,1.3c-0.1,0.6-0.7,1-1.3,0.9c-0.6-0.1-1-0.7-0.9-1.3
		C55.3,136.1,55.9,135.7,56.5,135.8"/>
	<path class="st1" d="M69.6,0c0.6,0,1.1,0.5,1.1,1.1c0,0.6-0.5,1.1-1.1,1.1c-0.6,0-1.1-0.5-1.1-1.1C68.6,0.5,69,0,69.6,0"/>
	<path class="st1" d="M69.6,137.1c0.6,0,1.1,0.5,1.1,1.1c0,0.6-0.5,1.1-1.1,1.1c-0.6,0-1.1-0.5-1.1-1.1
		C68.6,137.6,69,137.1,69.6,137.1"/>
	<path class="st1" d="M69.6,0c0.6,0,1.1,0.5,1.1,1.1c0,0.6-0.5,1.1-1.1,1.1c-0.6,0-1.1-0.5-1.1-1.1C68.6,0.5,69,0,69.6,0"/>
	<path class="st1" d="M69.6,137.1c0.6,0,1.1,0.5,1.1,1.1c0,0.6-0.5,1.1-1.1,1.1c-0.6,0-1.1-0.5-1.1-1.1
		C68.6,137.6,69,137.1,69.6,137.1"/>
	<path class="st1" d="M56.1,1.3c0.6-0.1,1.2,0.3,1.3,0.9c0.1,0.6-0.3,1.2-0.9,1.3c-0.6,0.1-1.2-0.3-1.3-0.9
		C55.1,2,55.5,1.5,56.1,1.3"/>
	<path class="st1" d="M82.8,135.8c0.6-0.1,1.2,0.3,1.3,0.9c0.1,0.6-0.3,1.2-0.9,1.3c-0.6,0.1-1.2-0.3-1.3-0.9
		C81.8,136.5,82.2,135.9,82.8,135.8"/>
	<path class="st1" d="M43,5.3c0.6-0.2,1.2,0,1.4,0.6c0.2,0.6,0,1.2-0.6,1.4c-0.6,0.2-1.2,0-1.4-0.6C42.2,6.2,42.4,5.5,43,5.3"/>
	<path class="st1" d="M95.5,132c0.6-0.2,1.2,0,1.4,0.6c0.2,0.6,0,1.2-0.6,1.4c-0.6,0.2-1.2,0-1.4-0.6
		C94.6,132.8,94.9,132.2,95.5,132"/>
	<path class="st1" d="M31,11.7c0.5-0.3,1.2-0.2,1.5,0.3c0.3,0.5,0.2,1.2-0.3,1.5c-0.5,0.3-1.2,0.2-1.5-0.3
		C30.3,12.7,30.5,12.1,31,11.7"/>
	<path class="st1" d="M107.1,125.7c0.5-0.3,1.2-0.2,1.5,0.3c0.3,0.5,0.2,1.2-0.3,1.5c-0.5,0.3-1.2,0.2-1.5-0.3
		C106.5,126.7,106.6,126.1,107.1,125.7"/>
	<path class="st1" d="M20.4,20.4c0.4-0.4,1.1-0.4,1.5,0c0.4,0.4,0.4,1.1,0,1.5c-0.4,0.4-1.1,0.4-1.5,0C20,21.5,20,20.8,20.4,20.4"/>
	<path class="st1" d="M117.3,117.3c0.4-0.4,1.1-0.4,1.5,0c0.4,0.4,0.4,1.1,0,1.5c-0.4,0.4-1.1,0.4-1.5,0
		C116.9,118.5,116.9,117.8,117.3,117.3"/>
	<path class="st1" d="M11.7,31c0.3-0.5,1-0.6,1.5-0.3c0.5,0.3,0.6,1,0.3,1.5c-0.3,0.5-1,0.6-1.5,0.3C11.5,32.1,11.4,31.4,11.7,31"/>
	<path class="st1" d="M125.7,107.1c0.3-0.5,1-0.6,1.5-0.3c0.5,0.3,0.6,1,0.3,1.5c-0.3,0.5-1,0.6-1.5,0.3
		C125.5,108.3,125.4,107.6,125.7,107.1"/>
	<path class="st1" d="M5.3,43c0.2-0.6,0.9-0.8,1.4-0.6c0.6,0.2,0.8,0.9,0.6,1.4c-0.2,0.6-0.9,0.8-1.4,0.6C5.3,44.2,5.1,43.5,5.3,43"
		/>
	<path class="st1" d="M132,95.5c0.2-0.6,0.9-0.8,1.4-0.6c0.6,0.2,0.8,0.9,0.6,1.4c-0.2,0.6-0.9,0.8-1.4,0.6
		C132,96.6,131.7,96,132,95.5"/>
	<path class="st1" d="M1.3,56.1c0.1-0.6,0.7-1,1.3-0.9c0.6,0.1,1,0.7,0.9,1.3c-0.1,0.6-0.7,1-1.3,0.8C1.6,57.2,1.2,56.6,1.3,56.1"/>
	<path class="st1" d="M135.8,82.8c0.1-0.6,0.7-1,1.3-0.9c0.6,0.1,1,0.7,0.8,1.3c-0.1,0.6-0.7,1-1.3,0.9
		C136.1,84,135.7,83.4,135.8,82.8"/>
	<path class="st1" d="M0,69.6c0-0.6,0.5-1.1,1.1-1.1c0.6,0,1.1,0.5,1.1,1.1c0,0.6-0.5,1.1-1.1,1.1C0.5,70.7,0,70.2,0,69.6"/>
	<path class="st1" d="M137.1,69.6c0-0.6,0.5-1.1,1.1-1.1c0.6,0,1.1,0.5,1.1,1.1c0,0.6-0.5,1.1-1.1,1.1
		C137.6,70.7,137.1,70.2,137.1,69.6"/>
	<path class="st1" d="M138.9,62.8c0.1,0.6-0.4,1.1-1,1.2c-0.6,0.1-1.1-0.4-1.2-1c-0.1-0.6,0.4-1.1,1-1.2
		C138.4,61.8,138.9,62.2,138.9,62.8"/>
	<path class="st1" d="M2.5,76.3c0.1,0.6-0.4,1.1-1,1.2c-0.6,0.1-1.1-0.4-1.2-1c-0.1-0.6,0.4-1.1,1-1.2C1.9,75.2,2.4,75.7,2.5,76.3"
		/>
	<path class="st1" d="M136.3,49.4c0.2,0.6-0.1,1.2-0.7,1.4c-0.6,0.2-1.2-0.2-1.4-0.7c-0.2-0.6,0.2-1.2,0.7-1.4
		C135.5,48.5,136.1,48.9,136.3,49.4"/>
	<path class="st1" d="M5.1,89.2c0.2,0.6-0.2,1.2-0.7,1.4c-0.6,0.2-1.2-0.2-1.4-0.7c-0.2-0.6,0.1-1.2,0.7-1.4
		C4.3,88.3,4.9,88.7,5.1,89.2"/>
	<path class="st1" d="M131.1,36.8c0.3,0.5,0.1,1.2-0.4,1.5c-0.5,0.3-1.2,0.1-1.5-0.4c-0.3-0.5-0.1-1.2,0.4-1.5
		C130.1,36.1,130.8,36.3,131.1,36.8"/>
	<path class="st1" d="M10.1,101.4c0.3,0.5,0.1,1.2-0.4,1.5s-1.2,0.1-1.5-0.4c-0.3-0.5-0.1-1.2,0.4-1.5
		C9.2,100.7,9.9,100.9,10.1,101.4"/>
	<path class="st1" d="M123.5,25.5c0.4,0.5,0.3,1.1-0.2,1.5c-0.5,0.4-1.1,0.3-1.5-0.1c-0.4-0.5-0.3-1.1,0.2-1.5
		C122.4,24.9,123.1,25,123.5,25.5"/>
	<path class="st1" d="M17.5,112.4c0.4,0.5,0.3,1.1-0.2,1.5c-0.5,0.4-1.1,0.3-1.5-0.1c-0.4-0.5-0.3-1.2,0.1-1.5
		C16.4,111.9,17.1,112,17.5,112.4"/>
	<path class="st1" d="M113.8,15.8c0.5,0.4,0.5,1.1,0.1,1.5c-0.4,0.5-1.1,0.5-1.5,0.2c-0.5-0.4-0.5-1.1-0.2-1.5
		C112.7,15.5,113.4,15.4,113.8,15.8"/>
	<path class="st1" d="M26.8,121.8c0.5,0.4,0.5,1.1,0.1,1.5c-0.4,0.5-1.1,0.5-1.5,0.1c-0.5-0.4-0.5-1.1-0.1-1.5
		C25.7,121.5,26.4,121.4,26.8,121.8"/>
	<path class="st1" d="M102.5,8.2c0.5,0.3,0.7,0.9,0.4,1.5c-0.3,0.5-0.9,0.7-1.5,0.4c-0.5-0.3-0.7-0.9-0.4-1.5
		C101.3,8.1,101.9,7.9,102.5,8.2"/>
	<path class="st1" d="M37.8,129.1c0.5,0.3,0.7,0.9,0.4,1.5c-0.3,0.5-0.9,0.7-1.5,0.4c-0.5-0.3-0.7-0.9-0.4-1.5
		C36.6,129.1,37.3,128.9,37.8,129.1"/>
	<path class="st1" d="M89.9,3c0.6,0.2,0.9,0.8,0.7,1.4c-0.2,0.6-0.8,0.9-1.4,0.7c-0.6-0.2-0.9-0.8-0.7-1.3C88.7,3.2,89.3,2.8,89.9,3
		"/>
	<path class="st1" d="M50.1,134.2c0.6,0.2,0.9,0.8,0.7,1.3c-0.2,0.6-0.8,0.9-1.4,0.7c-0.6-0.2-0.9-0.8-0.7-1.4
		C48.9,134.4,49.5,134,50.1,134.2"/>
	<path class="st1" d="M76.5,0.3c0.6,0.1,1,0.6,1,1.2c-0.1,0.6-0.6,1-1.2,1c-0.6-0.1-1-0.6-1-1.2C75.3,0.7,75.9,0.3,76.5,0.3"/>
	<path class="st1" d="M63,136.8c0.6,0.1,1,0.6,1,1.2c-0.1,0.6-0.6,1-1.2,1c-0.6-0.1-1-0.6-1-1.2C61.9,137.2,62.4,136.7,63,136.8"/>
	<path class="st1" d="M62.8,0.3c0.6-0.1,1.1,0.4,1.2,1c0.1,0.6-0.4,1.1-1,1.2c-0.6,0.1-1.1-0.4-1.2-1C61.8,0.9,62.2,0.4,62.8,0.3"/>
	<path class="st1" d="M76.3,136.8c0.6-0.1,1.1,0.4,1.2,1c0.1,0.6-0.4,1.1-1,1.2c-0.6,0.1-1.1-0.4-1.2-1
		C75.2,137.4,75.7,136.8,76.3,136.8"/>
	<path class="st1" d="M62.8,0.3c0.6-0.1,1.1,0.4,1.2,1c0.1,0.6-0.4,1.1-1,1.2c-0.6,0.1-1.1-0.4-1.2-1C61.8,0.9,62.2,0.4,62.8,0.3"/>
	<path class="st1" d="M76.3,136.8c0.6-0.1,1.1,0.4,1.2,1c0.1,0.6-0.4,1.1-1,1.2c-0.6,0.1-1.1-0.4-1.2-1
		C75.2,137.4,75.7,136.8,76.3,136.8"/>
	<path class="st1" d="M49.4,3c0.6-0.2,1.2,0.2,1.4,0.7c0.2,0.6-0.2,1.2-0.7,1.3c-0.6,0.2-1.2-0.1-1.4-0.7C48.5,3.8,48.9,3.2,49.4,3"
		/>
	<path class="st1" d="M89.2,134.2c0.6-0.2,1.2,0.1,1.4,0.7c0.2,0.6-0.1,1.2-0.7,1.4c-0.6,0.2-1.2-0.2-1.4-0.7
		C88.3,135,88.7,134.4,89.2,134.2"/>
	<path class="st1" d="M36.8,8.2c0.5-0.3,1.2-0.1,1.5,0.4c0.3,0.5,0.1,1.2-0.4,1.5c-0.5,0.3-1.2,0.1-1.5-0.4
		C36.1,9.2,36.3,8.5,36.8,8.2"/>
	<path class="st1" d="M101.4,129.1c0.5-0.3,1.2-0.1,1.5,0.4c0.3,0.5,0.1,1.2-0.4,1.5c-0.5,0.3-1.2,0.1-1.5-0.4
		C100.7,130.1,100.9,129.4,101.4,129.1"/>
	<path class="st1" d="M25.5,15.8c0.5-0.4,1.1-0.3,1.5,0.2c0.4,0.5,0.3,1.1-0.1,1.5c-0.5,0.4-1.1,0.3-1.5-0.2
		C24.9,16.9,25,16.2,25.5,15.8"/>
	<path class="st1" d="M112.4,121.8c0.5-0.4,1.1-0.3,1.5,0.2c0.4,0.5,0.3,1.1-0.1,1.5c-0.5,0.4-1.1,0.3-1.5-0.2
		C111.9,122.9,112,122.2,112.4,121.8"/>
	<path class="st1" d="M15.8,25.5c0.4-0.5,1.1-0.5,1.5-0.1c0.5,0.4,0.5,1.1,0.2,1.5c-0.4,0.5-1.1,0.5-1.5,0.1
		C15.5,26.6,15.4,25.9,15.8,25.5"/>
	<path class="st1" d="M121.8,112.4c0.4-0.5,1.1-0.5,1.5-0.2c0.5,0.4,0.5,1.1,0.2,1.5c-0.4,0.5-1.1,0.5-1.5,0.1
		C121.5,113.6,121.4,112.9,121.8,112.4"/>
	<path class="st1" d="M8.2,36.8c0.3-0.5,0.9-0.7,1.5-0.4c0.5,0.3,0.7,0.9,0.4,1.5c-0.3,0.5-0.9,0.7-1.5,0.4
		C8.1,38,7.9,37.3,8.2,36.8"/>
	<path class="st1" d="M129.1,101.4c0.3-0.5,0.9-0.7,1.5-0.4c0.5,0.3,0.7,0.9,0.4,1.5c-0.3,0.5-0.9,0.7-1.5,0.4
		C129.1,102.6,128.9,102,129.1,101.4"/>
	<path class="st1" d="M3,49.4c0.2-0.6,0.8-0.9,1.4-0.7c0.6,0.2,0.9,0.8,0.7,1.4c-0.2,0.6-0.8,0.9-1.4,0.7S2.8,50,3,49.4"/>
	<path class="st1" d="M134.2,89.2c0.2-0.6,0.8-0.9,1.4-0.7c0.6,0.2,0.9,0.8,0.7,1.4c-0.2,0.6-0.8,0.9-1.4,0.7
		C134.4,90.4,134,89.8,134.2,89.2"/>
	<path class="st1" d="M0.3,62.8c0.1-0.6,0.6-1,1.2-1c0.6,0.1,1,0.6,1,1.2c-0.1,0.6-0.6,1-1.2,1C0.7,63.9,0.3,63.4,0.3,62.8"/>
	<path class="st1" d="M136.8,76.3c0.1-0.6,0.6-1,1.2-1c0.6,0.1,1,0.6,1,1.2c-0.1,0.6-0.6,1-1.2,1C137.2,77.4,136.7,76.9,136.8,76.3"
		/>
	<path class="st1" d="M0.3,76.5c-0.1-0.6,0.4-1.1,1-1.2c0.6-0.1,1.1,0.4,1.2,1c0.1,0.6-0.4,1.1-1,1.2C0.9,77.5,0.4,77.1,0.3,76.5"/>
	<path class="st1" d="M136.8,63c-0.1-0.6,0.4-1.1,1-1.2c0.6-0.1,1.1,0.4,1.2,1c0.1,0.6-0.4,1.1-1,1.2
		C137.4,64.1,136.8,63.6,136.8,63"/>
	<path class="st1" d="M139.2,66.2c0,0.6-0.4,1.1-1,1.1c-0.6,0-1.1-0.4-1.1-1c0-0.6,0.4-1.1,1-1.1C138.7,65.2,139.2,65.6,139.2,66.2"
		/>
	<path class="st1" d="M2.3,73c0,0.6-0.4,1.1-1,1.1c-0.6,0-1.1-0.4-1.1-1c0-0.6,0.4-1.1,1-1.1C1.7,71.9,2.2,72.4,2.3,73"/>
	<path class="st1" d="M137.2,52.7c0.1,0.6-0.2,1.2-0.8,1.3c-0.6,0.1-1.2-0.2-1.3-0.8c-0.1-0.6,0.2-1.2,0.8-1.3
		C136.5,51.8,137.1,52.1,137.2,52.7"/>
	<path class="st1" d="M4.2,86c0.2,0.6-0.2,1.2-0.8,1.3c-0.6,0.1-1.2-0.2-1.3-0.8c-0.1-0.6,0.2-1.2,0.8-1.3C3.5,85.1,4,85.5,4.2,86"
		/>
	<path class="st1" d="M132.6,39.9c0.3,0.5,0,1.2-0.5,1.4c-0.5,0.3-1.2,0-1.4-0.5c-0.3-0.5,0-1.2,0.5-1.4
		C131.7,39.1,132.3,39.3,132.6,39.9"/>
	<path class="st1" d="M8.6,98.5c0.3,0.5,0,1.2-0.5,1.4c-0.5,0.3-1.2,0-1.4-0.5c-0.3-0.5,0-1.2,0.5-1.4C7.7,97.7,8.4,98,8.6,98.5"/>
	<path class="st1" d="M125.6,28.2c0.4,0.5,0.3,1.2-0.2,1.5c-0.5,0.4-1.2,0.3-1.5-0.2c-0.4-0.5-0.3-1.2,0.2-1.5
		C124.5,27.6,125.2,27.7,125.6,28.2"/>
	<path class="st1" d="M15.5,109.8c0.4,0.5,0.3,1.2-0.2,1.5c-0.5,0.4-1.2,0.3-1.5-0.2c-0.4-0.5-0.3-1.2,0.2-1.5
		C14.4,109.3,15.1,109.4,15.5,109.8"/>
	<path class="st1" d="M116.4,18c0.4,0.4,0.5,1.1,0.1,1.5c-0.4,0.4-1.1,0.5-1.5,0.1c-0.4-0.4-0.5-1.1-0.1-1.5
		C115.3,17.7,116,17.6,116.4,18"/>
	<path class="st1" d="M24.3,119.6c0.4,0.4,0.5,1.1,0.1,1.5c-0.4,0.4-1.1,0.5-1.5,0.1c-0.4-0.4-0.5-1.1-0.1-1.5
		C23.2,119.3,23.9,119.2,24.3,119.6"/>
	<path class="st1" d="M105.4,9.9c0.5,0.3,0.7,1,0.4,1.5c-0.3,0.5-1,0.7-1.5,0.4c-0.5-0.3-0.7-1-0.4-1.5
		C104.3,9.8,104.9,9.6,105.4,9.9"/>
	<path class="st1" d="M35,127.5c0.5,0.3,0.7,1,0.4,1.5c-0.3,0.5-1,0.7-1.5,0.4c-0.5-0.3-0.7-1-0.4-1.5
		C33.8,127.4,34.4,127.2,35,127.5"/>
	<path class="st1" d="M93.1,4.1c0.6,0.2,0.9,0.8,0.7,1.4c-0.2,0.6-0.8,0.9-1.4,0.7c-0.6-0.2-0.9-0.8-0.7-1.4
		C91.9,4.2,92.5,3.9,93.1,4.1"/>
	<path class="st1" d="M46.9,133.2c0.6,0.2,0.9,0.8,0.7,1.4c-0.2,0.6-0.8,0.9-1.4,0.7c-0.6-0.2-0.9-0.8-0.7-1.4
		C45.7,133.3,46.3,133,46.9,133.2"/>
	<path class="st1" d="M79.9,0.8c0.6,0.1,1,0.6,0.9,1.2c-0.1,0.6-0.6,1-1.2,0.9c-0.6-0.1-1-0.6-0.9-1.2C78.7,1.1,79.3,0.7,79.9,0.8"
		/>
	<path class="st1" d="M59.7,136.4c0.6,0.1,1,0.6,0.9,1.2c-0.1,0.6-0.6,1-1.2,0.9c-0.6-0.1-1-0.6-0.9-1.2
		C58.6,136.7,59.1,136.3,59.7,136.4"/>
	<path class="st1" d="M66.2,0.1c0.6,0,1.1,0.4,1.1,1c0,0.6-0.4,1.1-1,1.1c-0.6,0-1.1-0.4-1.1-1C65.2,0.6,65.6,0.1,66.2,0.1"/>
	<path class="st1" d="M73,137c0.6,0,1.1,0.4,1.1,1c0,0.6-0.4,1.1-1,1.1c-0.6,0-1.1-0.4-1.1-1C71.9,137.6,72.4,137.1,73,137"/>
	<path class="st1" d="M66.2,0.1c0.6,0,1.1,0.4,1.1,1c0,0.6-0.4,1.1-1,1.1c-0.6,0-1.1-0.4-1.1-1C65.2,0.6,65.6,0.1,66.2,0.1"/>
	<path class="st1" d="M73,137c0.6,0,1.1,0.4,1.1,1c0,0.6-0.4,1.1-1,1.1c-0.6,0-1.1-0.4-1.1-1C71.9,137.6,72.4,137.1,73,137"/>
	<path class="st1" d="M52.7,2.1c0.6-0.1,1.2,0.2,1.3,0.8c0.1,0.6-0.2,1.2-0.8,1.3c-0.6,0.1-1.2-0.2-1.3-0.8
		C51.8,2.8,52.1,2.2,52.7,2.1"/>
	<path class="st1" d="M86,135.1c0.6-0.1,1.2,0.2,1.3,0.8c0.1,0.6-0.2,1.2-0.8,1.3c-0.6,0.1-1.2-0.2-1.3-0.8
		C85.1,135.8,85.5,135.2,86,135.1"/>
	<path class="st1" d="M39.9,6.7c0.5-0.3,1.2,0,1.4,0.5c0.3,0.5,0,1.2-0.5,1.4c-0.5,0.3-1.2,0-1.4-0.5C39.1,7.6,39.3,6.9,39.9,6.7"/>
	<path class="st1" d="M98.5,130.6c0.5-0.3,1.2,0,1.4,0.5c0.3,0.5,0,1.2-0.5,1.4c-0.5,0.3-1.2,0-1.4-0.5
		C97.7,131.5,97.9,130.9,98.5,130.6"/>
	<path class="st1" d="M28.2,13.7c0.5-0.4,1.2-0.3,1.5,0.2c0.4,0.5,0.3,1.2-0.2,1.5c-0.5,0.4-1.2,0.3-1.5-0.2
		C27.6,14.7,27.7,14.1,28.2,13.7"/>
	<path class="st1" d="M109.8,123.8c0.5-0.4,1.2-0.3,1.5,0.2c0.4,0.5,0.3,1.2-0.2,1.5c-0.5,0.4-1.2,0.3-1.5-0.2
		C109.3,124.9,109.4,124.2,109.8,123.8"/>
	<path class="st1" d="M18,22.9c0.4-0.4,1.1-0.5,1.5-0.1c0.4,0.4,0.5,1.1,0.1,1.5c-0.4,0.4-1.1,0.5-1.5,0.1
		C17.7,24,17.6,23.3,18,22.9"/>
	<path class="st1" d="M119.6,115c0.4-0.4,1.1-0.5,1.5-0.1c0.4,0.4,0.5,1.1,0.1,1.5c-0.4,0.4-1.1,0.5-1.5,0.1
		C119.3,116.1,119.2,115.4,119.6,115"/>
	<path class="st1" d="M9.9,33.8c0.3-0.5,1-0.7,1.5-0.4c0.5,0.3,0.7,1,0.4,1.5c-0.3,0.5-1,0.7-1.5,0.4C9.8,35,9.6,34.4,9.9,33.8"/>
	<path class="st1" d="M127.5,104.3c0.3-0.5,1-0.7,1.5-0.4c0.5,0.3,0.7,1,0.4,1.5c-0.3,0.5-1,0.7-1.5,0.4
		C127.4,105.5,127.2,104.8,127.5,104.3"/>
	<path class="st1" d="M4.1,46.2c0.2-0.6,0.8-0.9,1.4-0.7c0.6,0.2,0.9,0.8,0.7,1.4c-0.2,0.6-0.8,0.9-1.4,0.7
		C4.2,47.4,3.9,46.7,4.1,46.2"/>
	<path class="st1" d="M133.2,92.4c0.2-0.6,0.8-0.9,1.4-0.7c0.6,0.2,0.9,0.8,0.7,1.4c-0.2,0.6-0.8,0.9-1.4,0.7
		C133.3,93.6,133,92.9,133.2,92.4"/>
	<path class="st1" d="M0.8,59.4c0.1-0.6,0.6-1,1.2-0.9c0.6,0.1,1,0.6,0.9,1.2c-0.1,0.6-0.6,1-1.2,0.9C1.1,60.6,0.7,60,0.8,59.4"/>
	<path class="st1" d="M136.4,79.5c0.1-0.6,0.6-1,1.2-0.9c0.6,0.1,1,0.6,0.9,1.2c-0.1,0.6-0.6,1-1.2,0.9
		C136.7,80.7,136.3,80.1,136.4,79.5"/>
	<path class="st1" d="M0.1,73.1c0-0.6,0.4-1.1,1-1.1c0.6,0,1.1,0.4,1.1,1c0,0.6-0.4,1.1-1,1.1C0.6,74.1,0.1,73.7,0.1,73.1"/>
	<path class="st1" d="M137,66.3c0-0.6,0.4-1.1,1-1.1c0.6,0,1.1,0.4,1.1,1c0,0.6-0.4,1.1-1,1.1C137.6,67.4,137.1,66.9,137,66.3"/>
	<path class="st1" d="M138.5,59.4c0.1,0.6-0.3,1.1-0.9,1.2c-0.6,0.1-1.1-0.3-1.2-0.9c-0.1-0.6,0.3-1.1,0.9-1.2
		C137.9,58.4,138.4,58.8,138.5,59.4"/>
	<path class="st1" d="M2.9,79.5C3,80.1,2.6,80.7,2,80.8c-0.6,0.1-1.1-0.3-1.2-0.9c-0.1-0.6,0.3-1.1,0.9-1.2
		C2.3,78.5,2.8,79,2.9,79.5"/>
	<path class="st1" d="M135.2,46.2c0.2,0.6-0.1,1.2-0.7,1.4c-0.6,0.2-1.2-0.1-1.4-0.7c-0.2-0.6,0.1-1.2,0.7-1.4
		C134.4,45.3,135,45.6,135.2,46.2"/>
	<path class="st1" d="M6.1,92.4c0.2,0.6-0.1,1.2-0.7,1.4c-0.6,0.2-1.2-0.1-1.4-0.7c-0.2-0.6,0.1-1.2,0.7-1.4
		C5.3,91.5,5.9,91.8,6.1,92.4"/>
	<path class="st1" d="M129.4,33.8c0.3,0.5,0.1,1.2-0.4,1.5c-0.5,0.3-1.2,0.1-1.5-0.4c-0.3-0.5-0.1-1.2,0.4-1.5
		C128.4,33.2,129.1,33.3,129.4,33.8"/>
	<path class="st1" d="M11.8,104.3c0.3,0.5,0.1,1.2-0.4,1.5c-0.5,0.3-1.2,0.1-1.5-0.4c-0.3-0.5-0.1-1.2,0.4-1.5
		C10.8,103.6,11.5,103.8,11.8,104.3"/>
	<path class="st1" d="M121.2,22.9c0.4,0.4,0.4,1.1-0.1,1.5c-0.4,0.4-1.1,0.4-1.5-0.1c-0.4-0.4-0.4-1.1,0.1-1.5
		C120.2,22.4,120.8,22.4,121.2,22.9"/>
	<path class="st1" d="M19.6,115c0.4,0.4,0.4,1.1-0.1,1.5c-0.4,0.4-1.1,0.4-1.5-0.1c-0.4-0.4-0.4-1.1,0.1-1.5
		C18.6,114.5,19.2,114.5,19.6,115"/>
	<path class="st1" d="M111.1,13.7c0.5,0.4,0.6,1,0.2,1.5c-0.4,0.5-1,0.6-1.5,0.2c-0.5-0.4-0.6-1-0.2-1.5
		C110,13.5,110.6,13.4,111.1,13.7"/>
	<path class="st1" d="M29.5,123.8c0.5,0.4,0.6,1,0.2,1.5c-0.4,0.5-1,0.6-1.5,0.2c-0.5-0.4-0.6-1-0.2-1.5
		C28.3,123.6,29,123.5,29.5,123.8"/>
	<path class="st1" d="M99.4,6.7c0.5,0.3,0.8,0.9,0.5,1.4c-0.3,0.5-0.9,0.8-1.4,0.5c-0.5-0.3-0.8-0.9-0.5-1.4
		C98.2,6.7,98.9,6.4,99.4,6.7"/>
	<path class="st1" d="M40.8,130.6c0.5,0.3,0.8,0.9,0.5,1.4c-0.3,0.5-0.9,0.8-1.4,0.5c-0.5-0.3-0.8-0.9-0.5-1.4
		C39.6,130.6,40.3,130.4,40.8,130.6"/>
	<path class="st1" d="M86.6,2.1c0.6,0.1,0.9,0.7,0.8,1.3C87.2,4,86.6,4.3,86,4.2c-0.6-0.1-0.9-0.7-0.8-1.3C85.4,2.3,86,1.9,86.6,2.1
		"/>
	<path class="st1" d="M53.2,135.1c0.6,0.1,0.9,0.7,0.8,1.3c-0.1,0.6-0.7,0.9-1.3,0.8c-0.6-0.1-0.9-0.7-0.8-1.3
		C52.1,135.3,52.7,134.9,53.2,135.1"/>
	<path class="st1" d="M73.1,0.1c0.6,0,1.1,0.5,1,1.1c0,0.6-0.5,1.1-1.1,1c-0.6,0-1.1-0.5-1-1.1C72,0.5,72.5,0.1,73.1,0.1"/>
	<path class="st1" d="M66.3,137c0.6,0,1.1,0.5,1,1.1c0,0.6-0.5,1.1-1.1,1c-0.6,0-1.1-0.5-1-1.1C65.2,137.5,65.7,137,66.3,137"/>
	<path class="st1" d="M59.4,0.8c0.6-0.1,1.1,0.3,1.2,0.9c0.1,0.6-0.3,1.1-0.9,1.2C59.1,3,58.6,2.6,58.5,2
		C58.4,1.4,58.8,0.8,59.4,0.8"/>
	<path class="st1" d="M79.5,136.4c0.6-0.1,1.1,0.3,1.2,0.9c0.1,0.6-0.3,1.1-0.9,1.2c-0.6,0.1-1.1-0.3-1.2-0.9
		C78.5,137,78.9,136.5,79.5,136.4"/>
	<path class="st1" d="M59.4,0.8c0.6-0.1,1.1,0.3,1.2,0.9c0.1,0.6-0.3,1.1-0.9,1.2C59.1,3,58.6,2.6,58.5,2
		C58.4,1.4,58.8,0.8,59.4,0.8"/>
	<path class="st1" d="M79.5,136.4c0.6-0.1,1.1,0.3,1.2,0.9c0.1,0.6-0.3,1.1-0.9,1.2c-0.6,0.1-1.1-0.3-1.2-0.9
		C78.5,137,78.9,136.5,79.5,136.4"/>
	<path class="st1" d="M46.2,4.1c0.6-0.2,1.2,0.1,1.4,0.7c0.2,0.6-0.1,1.2-0.7,1.4c-0.6,0.2-1.2-0.1-1.4-0.7
		C45.3,4.9,45.6,4.3,46.2,4.1"/>
	<path class="st1" d="M92.4,133.2c0.6-0.2,1.2,0.1,1.4,0.7c0.2,0.6-0.1,1.2-0.7,1.4c-0.6,0.2-1.2-0.1-1.4-0.7
		C91.5,134,91.8,133.4,92.4,133.2"/>
	<path class="st1" d="M33.8,9.9c0.5-0.3,1.2-0.1,1.5,0.4c0.3,0.5,0.1,1.2-0.4,1.5c-0.5,0.3-1.2,0.1-1.5-0.4
		C33.2,10.9,33.3,10.2,33.8,9.9"/>
	<path class="st1" d="M104.3,127.5c0.5-0.3,1.2-0.1,1.5,0.4c0.3,0.5,0.1,1.2-0.4,1.5c-0.5,0.3-1.2,0.1-1.5-0.4
		C103.6,128.5,103.8,127.8,104.3,127.5"/>
	<path class="st1" d="M22.9,18c0.4-0.4,1.1-0.4,1.5,0.1c0.4,0.4,0.4,1.1-0.1,1.5c-0.4,0.4-1.1,0.4-1.5-0.1
		C22.4,19.1,22.4,18.4,22.9,18"/>
	<path class="st1" d="M115,119.6c0.4-0.4,1.1-0.4,1.5,0.1c0.4,0.4,0.4,1.1-0.1,1.5c-0.4,0.4-1.1,0.4-1.5-0.1
		C114.5,120.7,114.5,120,115,119.6"/>
	<path class="st1" d="M13.7,28.2c0.4-0.5,1-0.6,1.5-0.2c0.5,0.4,0.6,1,0.2,1.5c-0.4,0.5-1,0.6-1.5,0.2
		C13.5,29.3,13.4,28.6,13.7,28.2"/>
	<path class="st1" d="M123.8,109.8c0.4-0.5,1-0.6,1.5-0.2c0.5,0.4,0.6,1,0.2,1.5c-0.3,0.5-1,0.6-1.5,0.2
		C123.6,111,123.5,110.3,123.8,109.8"/>
	<path class="st1" d="M6.7,39.9c0.3-0.5,0.9-0.8,1.4-0.5c0.5,0.3,0.8,0.9,0.5,1.4c-0.3,0.5-0.9,0.8-1.4,0.5
		C6.7,41.1,6.4,40.4,6.7,39.9"/>
	<path class="st1" d="M130.6,98.5c0.3-0.5,0.9-0.8,1.4-0.5c0.5,0.3,0.8,0.9,0.5,1.4c-0.3,0.5-0.9,0.8-1.4,0.5
		C130.6,99.7,130.4,99,130.6,98.5"/>
	<path class="st1" d="M2.1,52.7c0.1-0.6,0.7-0.9,1.3-0.8c0.6,0.1,0.9,0.7,0.8,1.3C4,53.8,3.5,54.2,2.9,54
		C2.3,53.9,1.9,53.3,2.1,52.7"/>
	<path class="st1" d="M135.1,86c0.1-0.6,0.7-0.9,1.3-0.8c0.6,0.1,0.9,0.7,0.8,1.3c-0.1,0.6-0.7,0.9-1.3,0.8
		C135.3,87.2,134.9,86.6,135.1,86"/>
	<path class="st1" d="M0.1,66.2c0-0.6,0.5-1.1,1.1-1c0.6,0,1.1,0.5,1,1.1c0,0.6-0.5,1.1-1.1,1C0.5,67.3,0.1,66.8,0.1,66.2"/>
	<path class="st1" d="M137,73c0-0.6,0.5-1.1,1.1-1c0.6,0,1.1,0.5,1,1.1c0,0.6-0.5,1.1-1.1,1C137.5,74.1,137,73.6,137,73"/>
	<path class="st1" d="M0.8,79.9c-0.1-0.6,0.3-1.1,0.9-1.2c0.6-0.1,1.1,0.3,1.2,0.9C3,80.1,2.6,80.7,2,80.8
		C1.4,80.9,0.8,80.5,0.8,79.9"/>
	<path class="st1" d="M136.4,59.7c-0.1-0.6,0.3-1.1,0.9-1.2c0.6-0.1,1.1,0.3,1.2,0.9c0.1,0.6-0.3,1.1-0.9,1.2
		C137,60.7,136.5,60.3,136.4,59.7"/>
	<polygon class="st1" points="28.9,69.6 29.2,69.5 29.1,69.3 28.6,69.3 28.3,69.2 27.9,69.5 27.9,70 28,70.2 28,70.4 27.8,70.3 
		27.8,70.7 28,70.8 28,71.1 27.4,71.2 26.9,71.5 27,71.7 27.5,71.5 27.9,71.5 28.3,71.6 28.6,71.6 28.7,71.3 28.6,71.1 28.7,70.6 
		28.9,70.1 	"/>
	<polygon class="st1" points="28.5,72.9 28.9,72.9 29,73.1 28.6,73.2 	"/>
	<polygon class="st1" points="28.4,73.7 29.3,73.3 29.6,73.4 29.6,73.8 29.3,73.7 28.8,73.9 28.4,73.8 	"/>
	<polygon class="st1" points="28,76.4 28.2,76.3 28.5,76.4 28.7,76.6 28.8,76.9 28.6,77.3 28.7,77.4 28.6,77.5 28.4,77.4 28.1,77.5 
		27.8,77.5 27.9,77.3 28.2,77 28.1,76.7 	"/>
	<polygon class="st1" points="29.1,77 29.3,76.8 29.6,76.9 29.9,77.1 29.7,77.2 29.5,77.1 29.3,77.4 29.1,77.3 	"/>
	<polygon class="st1" points="25.8,81.5 26.1,81.2 26.5,81.2 27.2,81.3 27.1,81.7 26.6,82.1 26.2,82.3 26.2,81.9 26.4,81.7 	"/>
	<polygon class="st1" points="30.8,70.6 31.1,71 31.4,70.4 32,70.1 32.3,70.7 32.8,70.2 33.2,70.1 33.8,70.4 33.9,71 34,71.2 
		34.5,71.4 34.4,71.6 34,71.8 33.7,71.7 33.7,71.5 32.8,71.4 32.4,72 31.7,72.2 31.7,72.6 31.3,73 30.5,73 30.4,72.6 30.1,72.6 
		29.6,72.5 29.4,72 29.4,71.7 29.9,71.7 30,71.9 29.8,72.1 30,72.3 30.5,72.3 31,72.3 31.4,71.9 30.9,71.7 30.5,71.4 30.2,71.5 
		29.9,71.3 30,71.1 	"/>
	<polygon class="st1" points="28.8,68.8 29.3,68.7 29.4,68.6 29.7,68.6 30.1,68.5 30.3,68.6 30.5,68.4 30.7,68.5 31,68.4 31,68.5 
		31.4,68.6 31.4,68.8 31.3,68.9 31.5,69 31.3,69.3 31.1,69.3 31.1,69.2 30.9,69.2 31,69.4 31,69.5 31.1,69.5 31.5,69.6 31.6,69.8 
		31.3,69.9 31.5,70.1 31.2,70.2 30.8,70.3 30.7,70 30.5,69.9 30.4,69.7 30.5,69.5 30.3,69.3 30.1,69.2 30.1,69 29.8,69.1 29.6,69.3 
		29.4,69.2 29.2,69.2 29.1,69 	"/>
	<polygon class="st1" points="31.6,66.5 31.8,66.7 31.7,66.8 31.4,66.9 31.3,66.9 31.4,66.7 	"/>
	<polygon class="st1" points="88.6,96 88.9,95.8 89.2,95.8 89.6,95.8 89.8,95.9 89.7,96.3 89.6,96.6 89.8,97 89.7,97.2 89.2,97.2 
		88.9,97 88.6,96.9 88.5,96.7 88.4,96.4 	"/>
	<polygon class="st1" points="100.9,35.2 101,35.1 101.4,35.1 101.6,34.9 101.9,34.8 102.1,34.9 102.4,35.1 102.4,35.3 102.3,35.4 
		102.2,35.5 102,35.4 101.8,35.5 101.6,35.4 101.4,35.4 101.1,35.4 101,35.3 100.9,35.3 	"/>
	<path class="st1" d="M104.2,30.3l-0.4-0.2l-0.4,0.1l-0.4,0l-0.6,0.2H102l-0.3-0.1l0.2-0.3l-0.1-0.5l0.2-0.2l-0.1-0.2l-0.4-0.2
		l-0.3-0.3l0.1-0.3l0.1-0.3l0.1-0.2l-0.1-0.4l0.2-0.2l0-0.2l-0.3,0l-0.1,0.2l-1,0l-0.3,0.1l-0.2,0l-0.2,0.2l-0.2-0.1l-0.3,0
		l-0.3,0.1l-0.2,0.1l-0.2-0.1l-0.2,0l0-0.3l-0.2-0.1l-0.4,0l0-0.2l-0.2,0.1l-0.3-0.1l-0.4,0l-0.4,0.1l-0.2-0.2l0-0.2l-0.2,0
		l-0.2,0.1l0.1,0.1l0.1,0l0,0.1L95.7,27l-0.1,0.1l-0.1-0.2l0-0.2l0.2-0.1l-0.1-0.1L95,26.4l-0.4,0l-0.2-0.2L94.3,26L94,25.8l0.1-0.2
		l0.2-0.1l0.2-0.2l-0.2,0l-0.3,0l-0.1,0.1l-0.2,0l-0.2-0.1l-0.5,0l-0.2-0.1L92.7,25l-0.2-0.2l0-0.3l0-0.3l0-0.2l-0.2-0.3l-0.2-0.2
		l-0.2-0.1l-0.4-0.1h-0.3L91,23.4l-0.2,0l-0.2-0.1l-0.2-0.2L90.2,23L90.1,23l-0.2,0.1l-0.2,0l-0.3,0l-0.2,0l-0.1,0.1l-0.3,0
		l-0.3,0.1l-0.2,0.2l-0.2,0.2L87.8,24l-0.3,0.2l-0.3,0.1l-0.3,0.2l-0.3,0.2L86.3,25L86,25.2l-0.2,0h-0.5l-0.2,0.2l0,0.3l0.3,0.2
		l0.2,0.1l0.3,0.1l0.2,0.2l0.1,0.3l0.2,0.4l0.3,0.3l0.1,0.2l-0.6-0.4l-0.5-0.8l-0.7-0.3l-0.3,0.2l-0.2,0.1l-0.3,0.1L84,26.6
		l-0.2,0.1l-0.2,0.1l-0.3,0.4L83,27.4l-0.4,0.1c-0.1,0.2-0.3,0.3-0.5,0.4c-0.6,0.1-1.1,0.1-1.8,0.2l-0.8,0.2l-0.2,0L79,28.5
		l-0.4,0.1L78,28.7L77.6,29l-0.4,0.1l-0.1,0.1l-0.6,0.2l-0.7,0.1l-0.5,0.1l-0.2,0.1l-0.3,0l-0.6,0.4l0,0.1l-0.2,0l0,0.1l-0.7,0.1
		l-0.9,1l-0.1,0.2l-0.1,0.2L72,32.1l0.1,0.5L71.8,33l-0.4,0.2l-0.2,0.3L71,33.9l-0.3,0.2l-0.1,0.2l0,0.1l0.1,0l0.1,0.1l-0.3,0.1
		l-0.1,0.2l-0.3,0.3l-0.5,0.6l-0.2,0l0,0.1L69.3,36l-0.1,0.4l-0.1,0.2l0.1,0.2l0,0.2l0,0.1l0,0.2L69,37.7l0.1,0.2l-0.6,0.6l-0.5,1
		L67.5,40l-0.8,1.1l-0.7,0.3l-0.7,0.1l-0.6,0.8l0,0.5L64.1,43l-0.5,0.4l-0.1,0.6l-1,2.9l-0.6,0.9l-0.2,0.3l-0.2,0.3l-0.3,0.2
		L60.7,49l-0.1,0.3l0,0.4l-0.9,0.6l-0.1,0.3l0,0.5l-0.1,0.2l-0.1,0.1l-0.1-0.1l-0.1-0.1l-0.2,0l-0.3,0.1v0.2l-0.1,0.1l-0.2,0.1
		l-0.5,0l0.2,0.3l-0.1,0.3L57.8,53l0.3,0.2l0,0.4l-0.6,0.6l-0.2-0.1L57,54l-0.1,0l0.1,0.1l0.1,0.1L57,54.3l-0.2,0.1l-0.1,0.2
		l-0.1,0.1l-0.4,0.5l-0.6,0l-0.3,0.5l-0.1,0.2L55.1,56l0,0.1l0.1,0.1l0.2,0l0.4,0l0,0.3l-0.1,0.1l0,0.4l-0.2,0.1l-0.2,0.2L55,57.7
		l-0.3,0.5l-0.5,0.4L54,58.4l-0.1,0l-0.1,0.1l-0.1,0.2l-0.3,0.4l-0.2,0.6L53,60.1l-0.6,0l-0.3,0.6l0.1,0.1l0.5,0l0,0.1l-0.4,0.5
		l-0.2,0.4l-0.3,0.5l-0.2,0.5l-0.2,0.3l-0.1,0.3l-0.5,0.4l0,1l-0.3,0l-0.1,0.1l-0.1,0.1l0,0.2l-0.1,0.1L50,65.8L49.7,66l0,0.2
		l-0.4,0.1l0,0.2l0,0.1l0,0.3l0.1,0.2l0,0.1l0.2,0l0.2-0.1l-0.1,0.2l-0.2,0.1l-0.2,0l-0.1,0.3l-0.1,0.1l0,0.1l-0.1-0.1l-0.1-0.1
		l-0.2,0.2l0,0.2l-0.1,0l0,0.2l-0.2,0.3l0.1,0.1l0,0.1l0.1,0l0,0.1l0.1,0l0.1,0.1l0.3,0l0.1-0.1l0.1,0.1l0,0.1l-0.1,0L48.8,69l0,0.1
		v0.2l-0.2,0.2l0,0.1l-0.1,0.1h-0.2l-0.1,0.2v0.1L48,70l0,0.1l0,0.2l-0.1,0.1l-0.2,0l-0.1,0.1v0.2l-0.1,0.2l0,0.2l0.1,0.1l0,0.2
		l-0.1,0.1l0,0.2l0.1,0.1l0.2-0.1L47.7,72l-0.2,0l0,0.1l0.2,0l0,0.4l-0.1,0.1l0,0.3l0,0.4l0.1,0.2l0.1,0.1l0,0.2l0.5,0.5l-0.4,0
		L47.5,74l-0.3,0l-0.3,0l-0.1,0.1l0,0.3l0.1,0.3l0.2,0.1l0.2,0c0,0,0.1,0,0.1,0l0.3,0l0.2,0L48,75l-0.1,0.2l-0.2,0.2l-0.1,0.1l0,0.1
		l-0.1,0.1l-0.2,0.1l0,0.1l0.2,0l0.2-0.1l0.2,0.2l-0.1,0.1l-0.1,0.2l0,0.1l0.1,0.2l0,0.3l0,0.2l0.2,0.2l-0.2,0l-0.1,0.1l0,0.1
		l0.1-0.1l0.2-0.1l0.1,0.1l0,0.2L48.1,78l0.1,0.2l0,0.3L48,78.3l-0.2,0.3l0-0.3l-0.1,0.2l-0.1,0.1l-0.1-0.4l-0.2,0.5L47.1,79
		l0.2,0.3L47,79.4l-0.3,0.3l0,0.4l0.2,0.2l0.3,0l-0.1,0.2l-0.5,0.3l0,0.2l-0.2,0.2h-0.3l0,0.3L46,82l-0.1,0.2l-0.1,0.2l-0.2,0.2
		l0,0.3l0.1,0.2l0.2,0.2l0,0.5l0.3,0.2l-0.2,0.2l-0.7,0.2l-0.2,0.2l-0.2,0.1L44.7,85v0.3l0.1,0.2l0.2,0.2l0,0.4l0.1,0.2l0.5,0.1
		l0.1,0.2l0.4,0.1l0.2,0.3l0.4,0.1l0.3,0.3l0.4,0.2l0.4,0.3l0.3,0.6l0.3,0.2l0.3,0.3l0,0.4l0,0.6l0.2,0.2l0.1,0.3l0.1,0.3l0.1,0.4
		l0.1,0.4l0,0.2l0.2,0.3l0.1,0.4l0,0.2l-0.1,0.1l0.1,0.2l0.2,0.1l0.3,0.4l0.1,0.3l0.2,0.4l0.2,0.2l0.2,0.4l0.4,0.7l0.1,0.3l0.1,0.2
		l0.1,0.1l0,0.5l-0.3,0.2l-0.2,0.2l0,0.2l0.1,0.4l0.2,0.2l0.1,0.3l0.3,0l0.2,0.2l0.1,0.3l0.6,0.8l0.2,0l0,0.4l0.1,0.1l0.2,0l0.1,0.1
		l0.1,0.1v0.2l-0.1,0l-0.3-0.3l-0.1,0.1l1.4,1.1l0.9,0.7l0.6,0.2l0.2,0.4l0.2,0.2l0.4,0.4l0.5,0.4l0.4,0.3L58,104l0.7,0.1l0.1,0.2
		l0.4,0.1l0.3,0.1l0.3,0.1l0.4,0.3l0.4,0.3l0.3,0.2l0.4,0.5l0.2,0.3l0.2,0.1l0.3,0.2l0.3,0.3c0,0.4-0.1,0.6,0,1c0,0.4,0.7,1.4,1,1.7
		c0.4,0.6,0,0.8,0.4,1.1c0.2,0.2,0.7,1.5,0.6,1.5c0.1,0.2,0.2,0.3,0.5,0.3l0,0.5l-0.3,0.3l0.1,0.4l-0.1,0.3l-0.3,0.1l0,0.3l-0.1,0.3
		l0.1,0.7l0.3,0.5l0.3,0.5l0,0.5l0,0.4l0.1,0.3L65,118l0.4,0.2l0.1-0.1l0.2-0.2l0-0.2v-0.3l0.2-0.2l0.3-0.2l0.3,0.2l0.1,0.2l0.3,0.1
		l0.3,0l0.2,0.2l0.5,0.1l0.3,0.1l0.2,0.2l0.1,0.2l0.2,0.1l0,0.2l0.1,0.2l0.2,0.1l0.2-0.1l0.1-0.2l-0.1-0.4l-0.2-0.3l-0.2-0.3
		l-0.2-0.4l0-0.4l-0.2-0.3v-0.2l0.6,0l0.3-0.2l0.4-0.1l0-0.3l0.3-0.1l0-0.3l0.3-0.3l-0.1-0.5l0-0.4l-0.2-0.5l0.3-0.3l0.1-0.3
		l-0.3-0.4l-0.1-0.4l0.2-0.3l0-0.7l-0.1-0.5l0-0.7l0.3-0.5l-0.1-0.5l0.2-0.7l0.3-0.3l0.3-0.4l0-0.4l-0.1-0.3l0.3-0.3l0-1.3l0.3-1.7
		l0.3-0.3l0.3-0.5l0.3-0.6l0.2-0.4l0.1-0.6l0.7-1.4l0.4-0.1l0.2-0.5l1.3-1l0.5-0.1l-0.1-0.3l0.6-0.3l0.1-0.2v-0.4l0.2-0.6l0.3-0.2
		l0.3-0.3l0.5,0.1l0.2-0.3l0.2,0l0.1-0.2l0.2-0.2l0-0.3l0.2,0l0.2-0.2L79,94.1l0.2-0.5l0.3-0.3l0.2-0.9l0.3-0.5l0.1-0.7l0.7-0.3
		l0.2-0.5l0.4-0.4l0.1-0.5l0.5-0.3l0-0.3l0.2-0.5l0.2-0.2l0.3,0l0-0.2l0.2-0.3l0.3-0.6l0.5,0l0.4-0.6l0.6-0.5l-0.2-0.4L84.5,85
		l0-0.6l0.5-0.3l0.8-0.1l0.4-0.5l0.2-1.2l1.2-0.7l0.5-0.8l0.8-1.5l0.7-1.4l0.5-1.2l0.2-1.2l0.1-0.8l0.1-0.2l0-0.3l0.1-0.4l0.2-0.5
		l-0.2-0.2l0-1.2l0-0.6l0.3-0.3l0.2-0.6l-0.1-0.8v-0.5l0.1-0.3l0.2-0.3l0-0.7l0-0.7l0.2-0.5l0.4-0.6l-0.1-1.7l0.3-0.3l0.3-0.6
		l0.2-0.7l0.1-0.7l-0.1-0.8l-0.3-0.3l-0.1-0.3v-0.4l0.1-0.3l0.2-0.3l0.1-0.2l0.2-0.3l0.2-0.2l0.3-0.2l0.1-0.2l0-0.2l-0.2-0.1
		l-0.1-0.1l-0.3-0.3L92.9,58l-0.1-0.3l-0.2-0.4L92.5,57l0.7-0.8l0.7-0.7l0.3-0.6L93.9,54l0.2-0.7l1-0.3l0.1-0.6l0.8-0.2l0.3-0.9
		l0.6-0.8l0-0.5l0.2-0.5l0-0.6l0-0.3l0.1-0.5v-0.8l0.9-0.4l0-0.3l0.3-0.4h0.4l0.1-0.2l0.3,0l0.3-0.1v-0.2l-0.2-0.2L99,45.3l0-0.4
		l0.7-0.5l0.1-0.3l-0.2-0.5l0.1-0.5l-0.1-0.3l0.3-0.3l0.4-0.4L99.9,42l-0.7-0.4L99,41.3l0-0.2l-0.1-0.5l-0.2-0.4l-0.1-0.6l0-0.4
		l-0.2-0.3l-0.2-0.4l0-0.6l-0.1-0.2l0-0.5l0-0.6l0.1-0.7l0-0.6l0.1-0.3l0.2-0.4l0.7-0.5l0.5-0.3l0.5-0.8l0.5-0.7l0.7-0.6l1.2-0.5
		l0.7-0.3l0.6-0.2l0.4-0.3L104.2,30.3z M70.1,84.3c-3.1,0-6-1-8.3-2.7l0,0l0,0C58.3,79,56,74.8,56,70.2c0-7.8,6.3-14.1,14.1-14.1
		s14.1,6.3,14.1,14.1C84.2,77.9,77.9,84.3,70.1,84.3"/>
	<polygon class="st1" points="61.8,81.6 61.8,81.5 61.8,81.5 	"/>
	<polygon class="st1" points="78.3,81.6 75.2,71.9 83.4,66 73.2,66 70.1,56.3 66.9,66 56.7,66 65,71.9 61.8,81.5 61.8,81.5 
		70.1,75.6 	"/>
</g>
</svg>
